<svg width="20" height="20" viewBox="0 0 20 20" fill="none" xmlns="http://www.w3.org/2000/svg">
<g id="flags" clip-path="url(#clip0_56625_2797)">
<path id="Vector" d="M0 7.1665H20V12.8332H0V7.1665Z" fill="#EEEEEE"/>
<path id="Vector_2" d="M20 15.0001C20 15.5894 19.7659 16.1547 19.3491 16.5714C18.9324 16.9881 18.3671 17.2223 17.7778 17.2223H2.22222C1.63285 17.2223 1.06762 16.9881 0.650874 16.5714C0.234126 16.1547 0 15.5894 0 15.0001V12.7778H20V15.0001Z" fill="#171796"/>
<path id="Vector_3" d="M17.7778 2.77783H2.22222C1.63285 2.77783 1.06762 3.01196 0.650874 3.42871C0.234126 3.84545 0 4.41068 0 5.00005L0 7.22228H20V5.00005C20 4.41068 19.7659 3.84545 19.3491 3.42871C18.9324 3.01196 18.3671 2.77783 17.7778 2.77783Z" fill="#D52B1E"/>
<path id="Vector_4" d="M6.33838 4.13135V10.5391C6.33838 11.5103 6.72416 12.4416 7.41086 13.1283C8.09755 13.815 9.02891 14.2008 10 14.2008C10.9712 14.2008 11.9025 13.815 12.5892 13.1283C13.2759 12.4416 13.6617 11.5103 13.6617 10.5391V4.13135H6.33838Z" fill="#D52B1E"/>
<path id="Vector_5" d="M7.91677 9.99995H9.30566V11.3888H7.91677V9.99995ZM9.30566 11.3888H10.6945V12.7777H9.30566V11.3888ZM9.30566 8.61106H10.6945V9.99995H9.30566V8.61106ZM10.6945 9.99995H12.0834V11.3888H10.6945V9.99995ZM10.6945 7.22217H12.0834V8.61106H10.6945V7.22217ZM12.0834 8.61106H13.384V9.99995H12.0834V8.61106ZM7.91677 7.22217H9.30566V8.61106H7.91677V7.22217ZM12.0834 12.7777H12.5307C12.8833 12.3794 13.1372 11.9036 13.2718 11.3888H12.0834V12.7777ZM10.6945 12.7777V13.8505C11.2011 13.7426 11.6763 13.5201 12.0834 13.1999V12.7777H10.6945ZM7.91677 12.7777V11.3888H6.72843C6.86302 11.9036 7.11691 12.3794 7.46954 12.7777H7.91677ZM6.61621 8.61106H7.91677V9.99995H6.61621V8.61106ZM7.91677 12.7777V13.1999C8.32393 13.5201 8.79906 13.7426 9.30566 13.8505V12.7777H7.91677Z" fill="white"/>
<path id="Vector_6" d="M13.7538 4.52257L12.6438 4.96202L11.906 4.02757L10.8899 4.65313L9.99989 3.86035L9.10933 4.65368L8.09489 4.02702L7.35545 4.96257L6.24711 4.52202L5.62378 5.67757L6.36322 7.26757L6.461 7.22202C6.89433 7.02035 7.35156 6.85424 7.81822 6.72869L7.84045 6.72257C8.29966 6.59922 8.7686 6.51539 9.24211 6.47202L9.27767 6.46868C9.66934 6.43535 10.331 6.43535 10.7227 6.46868L10.7549 6.47146C11.2127 6.51257 11.6871 6.59702 12.1638 6.72313L12.1821 6.72813C12.6466 6.85313 13.1032 7.01924 13.5382 7.22202L13.6354 7.26757L14.3749 5.67813L13.7538 4.52257Z" fill="#171796"/>
<path id="Vector_7" d="M9.24339 4.82281L9.36617 6.2467C9.5495 6.23226 9.77117 6.21837 10.0001 6.21837C10.2289 6.21837 10.4506 6.23226 10.6339 6.2467L10.7567 4.82281L10.0001 4.14893L9.24339 4.82281ZM13.6551 4.79337L12.7117 5.16726L12.3406 6.55004C12.7467 6.66448 13.1462 6.81004 13.5317 6.98281L14.1351 5.68504L13.6551 4.79337ZM6.34561 4.79226L5.8645 5.68448L6.46839 6.98226C6.85172 6.81004 7.25117 6.66448 7.6595 6.54948L7.28728 5.16615L6.34561 4.79226Z" fill="#0193DD"/>
</g>
<defs>
<clipPath id="clip0_56625_2797">
<rect width="20" height="20" fill="white"/>
</clipPath>
</defs>
</svg>
